# This file uses centimeters as units for non-parametric coordinates.

mtllib boxxybox.mtl
g default
v -2.763951 0.375128 6.017708
v 2.763951 0.375128 6.017708
v -2.763951 4.702244 6.017708
v 2.763951 4.702244 6.017708
v -2.763951 4.702244 -6.017708
v 2.763951 4.702244 -6.017708
v -2.763951 0.375128 -6.017708
v 2.763951 0.375128 -6.017708
v -2.763951 4.702244 -5.284210
v -2.763951 0.375128 -5.284210
v 2.763951 0.375128 -5.284210
v 2.763951 4.702244 -5.284210
v -2.763951 4.702244 5.206767
v -2.763951 0.375128 5.206772
v 2.763951 0.375128 5.206772
v 2.763951 4.702244 5.206767
v 2.111354 0.375128 6.017708
v 2.111354 4.702244 6.017708
v 2.111354 4.702244 5.206767
v 2.111354 4.702244 -5.284210
v 2.111354 4.702244 -6.017708
v 2.111354 0.375128 -6.017708
v 2.111354 0.375128 -5.284210
v 2.111354 0.375128 5.206772
v -2.063701 0.375128 6.017708
v -2.063701 4.702244 6.017708
v -2.063701 4.702244 5.206767
v -2.063701 4.702244 -5.284210
v -2.063701 4.702244 -6.017708
v -2.063701 0.375128 -6.017708
v -2.063701 0.375128 -5.284210
v -2.063701 0.375128 5.206772
v -2.063701 1.196636 5.206767
v -2.063701 1.196636 -5.284210
v 2.111354 1.196636 5.206767
v 2.111354 1.196636 -5.284210
vt 0.375000 0.000000
vt 0.625000 0.000000
vt 0.375000 0.250000
vt 0.625000 0.250000
vt 0.375000 0.500000
vt 0.625000 0.500000
vt 0.375000 0.750000
vt 0.625000 0.750000
vt 0.375000 1.000000
vt 0.625000 1.000000
vt 0.875000 0.000000
vt 0.875000 0.250000
vt 0.125000 0.000000
vt 0.125000 0.250000
vt 0.140236 0.250000
vt 0.375000 0.484764
vt 0.140236 0.000000
vt 0.375000 0.765236
vt 0.625000 0.765236
vt 0.859764 0.000000
vt 0.625000 0.484764
vt 0.859764 0.250000
vt 0.358155 0.250000
vt 0.375000 0.266845
vt 0.358155 0.000000
vt 0.375000 0.983155
vt 0.625000 0.983155
vt 0.641845 0.000000
vt 0.625000 0.266845
vt 0.641845 0.250000
vt 0.595486 0.000000
vt 0.595486 1.000000
vt 0.595486 0.250000
vt 0.595486 0.266845
vt 0.595486 0.484764
vt 0.595486 0.500000
vt 0.595486 0.750000
vt 0.595486 0.765236
vt 0.595486 0.983155
vt 0.406669 0.000000
vt 0.406669 1.000000
vt 0.406669 0.250000
vt 0.406669 0.266845
vt 0.406669 0.484764
vt 0.406669 0.500000
vt 0.406669 0.750000
vt 0.406669 0.765236
vt 0.406669 0.983155
vt 0.406669 0.484764
vt 0.406669 0.266845
vt 0.595486 0.266845
vt 0.595486 0.484764
vn 0.000000 0.000000 1.000000
vn 0.000000 0.000000 1.000000
vn 0.000000 0.000000 1.000000
vn 0.000000 0.000000 1.000000
vn 0.000000 1.000000 0.000000
vn 0.000000 1.000000 0.000000
vn 0.000000 1.000000 0.000000
vn 0.000000 1.000000 0.000000
vn 0.000000 0.000000 -1.000000
vn 0.000000 0.000000 -1.000000
vn 0.000000 0.000000 -1.000000
vn 0.000000 0.000000 -1.000000
vn 0.000000 -1.000000 0.000000
vn 0.000000 -1.000000 0.000000
vn 0.000000 -1.000000 0.000000
vn 0.000000 -1.000000 0.000000
vn 1.000000 0.000000 0.000000
vn 1.000000 0.000000 0.000000
vn 1.000000 0.000000 0.000000
vn 1.000000 0.000000 0.000000
vn -1.000000 0.000000 0.000000
vn -1.000000 0.000000 0.000000
vn -1.000000 0.000000 0.000000
vn -1.000000 0.000000 0.000000
vn -1.000000 0.000000 0.000000
vn -1.000000 0.000000 0.000000
vn -1.000000 0.000000 0.000000
vn -1.000000 0.000000 0.000000
vn 0.000000 -1.000000 0.000000
vn 0.000000 -1.000000 0.000000
vn 0.000000 -1.000000 0.000000
vn 0.000000 -1.000000 0.000000
vn 1.000000 0.000000 0.000000
vn 1.000000 0.000000 0.000000
vn 1.000000 0.000000 0.000000
vn 1.000000 0.000000 0.000000
vn 0.000000 1.000000 0.000000
vn 0.000000 1.000000 0.000000
vn 0.000000 1.000000 0.000000
vn 0.000000 1.000000 0.000000
vn 0.000000 0.000000 1.000000
vn 0.000000 0.000000 1.000000
vn 0.000000 0.000000 1.000000
vn 0.000000 0.000000 1.000000
vn 0.000000 1.000000 0.000000
vn 0.000000 1.000000 0.000000
vn 0.000000 1.000000 0.000000
vn 0.000000 1.000000 0.000000
vn 0.000000 1.000000 0.000000
vn 0.000000 1.000000 0.000000
vn 0.000000 1.000000 0.000000
vn 0.000000 1.000000 0.000000
vn 0.000000 0.000000 -1.000000
vn 0.000000 0.000000 -1.000000
vn 0.000000 0.000000 -1.000000
vn 0.000000 0.000000 -1.000000
vn 0.000000 -1.000000 0.000000
vn 0.000000 -1.000000 0.000000
vn 0.000000 -1.000000 0.000000
vn 0.000000 -1.000000 0.000000
vn 0.000000 -1.000000 0.000000
vn 0.000000 -1.000000 0.000000
vn 0.000000 -1.000000 0.000000
vn 0.000000 -1.000000 0.000000
vn 0.000000 1.000000 0.000000
vn 0.000000 1.000000 0.000000
vn 0.000000 1.000000 0.000000
vn 0.000000 1.000000 0.000000
vn 1.000000 0.000000 0.000000
vn 1.000000 0.000000 0.000000
vn 1.000000 0.000000 0.000000
vn 1.000000 0.000000 0.000000
vn 0.000000 0.000000 -1.000000
vn 0.000000 0.000000 -1.000000
vn 0.000000 0.000000 -1.000000
vn 0.000000 0.000000 -1.000000
vn -1.000000 0.000000 0.000000
vn -1.000000 0.000000 0.000000
vn -1.000000 0.000000 0.000000
vn -1.000000 0.000000 0.000000
vn 0.000000 0.000000 1.000000
vn 0.000000 0.000000 1.000000
vn 0.000000 0.000000 1.000000
vn 0.000000 0.000000 1.000000
s 1
g pCube1 group1
usemtl initialShadingGroup
f 1/1/1 25/40/2 26/42/3 3/3/4
s 2
f 3/3/5 26/42/6 27/43/7 13/24/8
s 3
f 5/5/9 29/45/10 30/46/11 7/7/12
s 4
f 14/26/13 32/48/14 25/41/15 1/9/16
s 5
f 2/2/17 15/28/18 16/30/19 4/4/20
s 6
f 13/23/21 14/25/22 1/1/23 3/3/24
f 7/13/25 10/17/26 9/15/27 5/14/28
s 4
f 7/7/29 30/46/30 31/47/31 10/18/32
s 5
f 12/22/33 11/20/34 8/11/35 6/12/36
s 2
f 9/16/37 28/44/38 29/45/39 5/5/40
s 6
f 9/15/27 10/17/26 14/25/22 13/23/21
s 4
f 10/18/32 31/47/31 32/48/14 14/26/13
s 5
f 16/30/19 15/28/18 11/20/34 12/22/33
s 2
f 13/24/8 27/43/7 28/44/38 9/16/37
s 1
f 18/33/41 17/31/42 2/2/43 4/4/44
s 2
f 19/34/45 18/33/46 4/4/47 16/29/48
f 20/35/49 19/34/45 16/29/48 12/21/50
f 21/36/51 20/35/49 12/21/50 6/6/52
s 3
f 22/37/53 21/36/54 6/6/55 8/8/56
s 4
f 23/38/57 22/37/58 8/8/59 11/19/60
f 24/39/61 23/38/57 11/19/60 15/27/62
f 17/32/63 24/39/61 15/27/62 2/10/64
s 1
f 26/42/3 25/40/2 17/31/42 18/33/41
s 2
f 27/43/7 26/42/6 18/33/46 19/34/45
s off
f 34/49/65 33/50/66 35/51/67 36/52/68
s 2
f 29/45/39 28/44/38 20/35/49 21/36/51
s 3
f 30/46/11 29/45/10 21/36/54 22/37/53
s 4
f 31/47/31 30/46/30 22/37/58 23/38/57
f 32/48/14 31/47/31 23/38/57 24/39/61
f 25/41/15 32/48/14 24/39/61 17/32/63
s off
f 28/44/69 27/43/70 33/50/71 34/49/72
f 27/43/73 19/34/74 35/51/75 33/50/76
f 19/34/77 20/35/78 36/52/79 35/51/80
f 20/35/81 28/44/82 34/49/83 36/52/84
g default
v -2.762753 4.825792 6.017708
v 2.765114 4.845268 6.017708
v -2.765224 5.527155 6.017708
v 2.762643 5.546630 6.017708
v -2.765224 5.527155 -6.017708
v 2.762643 5.546630 -6.017708
v -2.762753 4.825792 -6.017708
v 2.765114 4.845268 -6.017708
vt 0.375000 0.000000
vt 0.625000 0.000000
vt 0.375000 0.250000
vt 0.625000 0.250000
vt 0.375000 0.500000
vt 0.625000 0.500000
vt 0.375000 0.750000
vt 0.625000 0.750000
vt 0.375000 1.000000
vt 0.625000 1.000000
vt 0.125000 0.000000
vt 0.125000 0.250000
vt 0.001992 0.998008
vt 0.001992 0.001992
vt 0.998007 0.001992
vt 0.998007 0.998008
vn 0.000000 0.000000 1.000000
vn 0.000000 0.000000 1.000000
vn 0.000000 0.000000 1.000000
vn 0.000000 0.000000 1.000000
vn -0.003523 0.999994 0.000000
vn -0.003523 0.999994 0.000000
vn -0.003523 0.999994 0.000000
vn -0.003523 0.999994 0.000000
vn 0.000000 0.000000 -1.000000
vn 0.000000 0.000000 -1.000000
vn 0.000000 0.000000 -1.000000
vn 0.000000 0.000000 -1.000000
vn 0.003523 -0.999994 0.000000
vn 0.003523 -0.999994 0.000000
vn 0.003523 -0.999994 0.000000
vn 0.003523 -0.999994 0.000000
vn 0.999994 0.003523 0.000000
vn 0.999994 0.003523 0.000000
vn 0.999994 0.003523 0.000000
vn 0.999994 0.003523 0.000000
vn -0.999994 -0.003523 0.000000
vn -0.999994 -0.003523 0.000000
vn -0.999994 -0.003523 0.000000
vn -0.999994 -0.003523 0.000000
s off
g group1 pasted__pCube2
usemtl initialShadingGroup
f 37/53/85 38/54/86 40/56/87 39/55/88
f 39/55/89 40/56/90 42/58/91 41/57/92
f 41/57/93 42/58/94 44/60/95 43/59/96
f 43/59/97 44/60/98 38/62/99 37/61/100
f 38/65/101 44/66/102 42/67/103 40/68/104
f 43/63/105 37/53/106 39/55/107 41/64/108
