# This file uses centimeters as units for non-parametric coordinates.

mtllib please.mtl
g default
v -1.325137 5.644009 6.017731
v 4.202695 5.633411 5.992143
v -1.323797 6.345374 6.016653
v 4.204035 6.334775 5.991064
v -1.379545 6.326980 -6.018619
v 4.148287 6.316382 -6.044208
v -1.380884 5.625615 -6.017541
v 4.146947 5.615017 -6.043129
vt 0.375000 0.000000
vt 0.625000 0.000000
vt 0.375000 0.250000
vt 0.625000 0.250000
vt 0.375000 0.500000
vt 0.625000 0.500000
vt 0.375000 0.750000
vt 0.625000 0.750000
vt 0.375000 1.000000
vt 0.625000 1.000000
vt 0.125000 0.000000
vt 0.125000 0.250000
vt 0.001992 0.998008
vt 0.001992 0.001992
vt 0.998007 0.001992
vt 0.998007 0.998008
vn 0.004632 0.001528 0.999988
vn 0.004632 0.001528 0.999988
vn 0.004632 0.001528 0.999988
vn 0.004632 0.001528 0.999988
vn 0.001910 0.999997 -0.001537
vn 0.001910 0.999997 -0.001537
vn 0.001910 0.999997 -0.001537
vn 0.001910 0.999997 -0.001537
vn -0.004632 -0.001528 -0.999988
vn -0.004632 -0.001528 -0.999988
vn -0.004632 -0.001528 -0.999988
vn -0.004632 -0.001528 -0.999988
vn -0.001910 -0.999997 0.001537
vn -0.001910 -0.999997 0.001537
vn -0.001910 -0.999997 0.001537
vn -0.001910 -0.999997 0.001537
vn 0.999987 -0.001917 -0.004629
vn 0.999987 -0.001917 -0.004629
vn 0.999987 -0.001917 -0.004629
vn 0.999987 -0.001917 -0.004629
vn -0.999987 0.001917 0.004629
vn -0.999987 0.001917 0.004629
vn -0.999987 0.001917 0.004629
vn -0.999987 0.001917 0.004629
s off
g pasted__pCube2 group1
usemtl initialShadingGroup
f 1/1/1 2/2/2 4/4/3 3/3/4
f 3/3/5 4/4/6 6/6/7 5/5/8
f 5/5/9 6/6/10 8/8/11 7/7/12
f 7/7/13 8/8/14 2/10/15 1/9/16
f 2/13/17 8/14/18 6/15/19 4/16/20
f 7/11/21 1/1/22 3/3/23 5/12/24
g default
v -1.354512 1.183934 6.017708
v 4.173389 1.183934 6.017708
v -1.354512 5.511050 6.017708
v 4.173389 5.511050 6.017708
v -1.354512 5.511050 -6.017708
v 4.173389 5.511050 -6.017708
v -1.354512 1.183934 -6.017708
v 4.173389 1.183934 -6.017708
v -1.354512 5.511050 -5.284210
v -1.354512 1.183934 -5.284210
v 4.173389 1.183934 -5.284210
v 4.173389 5.511050 -5.284210
v -1.354512 5.511050 5.206767
v -1.354512 1.183934 5.206772
v 4.173389 1.183934 5.206772
v 4.173389 5.511050 5.206767
v 3.520793 1.183934 6.017708
v 3.520793 5.511050 6.017708
v 3.520793 5.511050 5.206767
v 3.520793 5.511050 -5.284210
v 3.520793 5.511050 -6.017708
v 3.520793 1.183934 -6.017708
v 3.520793 1.183934 -5.284210
v 3.520793 1.183934 5.206772
v -0.654262 1.183934 6.017708
v -0.654262 5.511050 6.017708
v -0.654262 5.511050 5.206767
v -0.654262 5.511050 -5.284210
v -0.654262 5.511050 -6.017708
v -0.654262 1.183934 -6.017708
v -0.654262 1.183934 -5.284210
v -0.654262 1.183934 5.206772
v -0.654262 2.005443 5.206767
v -0.654262 2.005443 -5.284210
v 3.520793 2.005443 5.206767
v 3.520793 2.005443 -5.284210
vt 0.375000 0.000000
vt 0.625000 0.000000
vt 0.375000 0.250000
vt 0.625000 0.250000
vt 0.375000 0.500000
vt 0.625000 0.500000
vt 0.375000 0.750000
vt 0.625000 0.750000
vt 0.375000 1.000000
vt 0.625000 1.000000
vt 0.875000 0.000000
vt 0.875000 0.250000
vt 0.125000 0.000000
vt 0.125000 0.250000
vt 0.140236 0.250000
vt 0.375000 0.484764
vt 0.140236 0.000000
vt 0.375000 0.765236
vt 0.625000 0.765236
vt 0.859764 0.000000
vt 0.625000 0.484764
vt 0.859764 0.250000
vt 0.358155 0.250000
vt 0.375000 0.266845
vt 0.358155 0.000000
vt 0.375000 0.983155
vt 0.625000 0.983155
vt 0.641845 0.000000
vt 0.625000 0.266845
vt 0.641845 0.250000
vt 0.595486 0.000000
vt 0.595486 1.000000
vt 0.595486 0.250000
vt 0.595486 0.266845
vt 0.595486 0.484764
vt 0.595486 0.500000
vt 0.595486 0.750000
vt 0.595486 0.765236
vt 0.595486 0.983155
vt 0.406669 0.000000
vt 0.406669 1.000000
vt 0.406669 0.250000
vt 0.406669 0.266845
vt 0.406669 0.484764
vt 0.406669 0.500000
vt 0.406669 0.750000
vt 0.406669 0.765236
vt 0.406669 0.983155
vt 0.406669 0.484764
vt 0.406669 0.266845
vt 0.595486 0.266845
vt 0.595486 0.484764
vn 0.000000 0.000000 1.000000
vn 0.000000 0.000000 1.000000
vn 0.000000 0.000000 1.000000
vn 0.000000 0.000000 1.000000
vn 0.000000 1.000000 0.000000
vn 0.000000 1.000000 0.000000
vn 0.000000 1.000000 0.000000
vn 0.000000 1.000000 0.000000
vn 0.000000 0.000000 -1.000000
vn 0.000000 0.000000 -1.000000
vn 0.000000 0.000000 -1.000000
vn 0.000000 0.000000 -1.000000
vn 0.000000 -1.000000 0.000000
vn 0.000000 -1.000000 0.000000
vn 0.000000 -1.000000 0.000000
vn 0.000000 -1.000000 0.000000
vn 1.000000 0.000000 0.000000
vn 1.000000 0.000000 0.000000
vn 1.000000 0.000000 0.000000
vn 1.000000 0.000000 0.000000
vn -1.000000 0.000000 0.000000
vn -1.000000 0.000000 0.000000
vn -1.000000 0.000000 0.000000
vn -1.000000 0.000000 0.000000
vn -1.000000 0.000000 0.000000
vn -1.000000 0.000000 0.000000
vn -1.000000 0.000000 0.000000
vn -1.000000 0.000000 0.000000
vn 0.000000 -1.000000 0.000000
vn 0.000000 -1.000000 0.000000
vn 0.000000 -1.000000 0.000000
vn 0.000000 -1.000000 0.000000
vn 1.000000 0.000000 0.000000
vn 1.000000 0.000000 0.000000
vn 1.000000 0.000000 0.000000
vn 1.000000 0.000000 0.000000
vn 0.000000 1.000000 0.000000
vn 0.000000 1.000000 0.000000
vn 0.000000 1.000000 0.000000
vn 0.000000 1.000000 0.000000
vn 0.000000 0.000000 1.000000
vn 0.000000 0.000000 1.000000
vn 0.000000 0.000000 1.000000
vn 0.000000 0.000000 1.000000
vn 0.000000 1.000000 0.000000
vn 0.000000 1.000000 0.000000
vn 0.000000 1.000000 0.000000
vn 0.000000 1.000000 0.000000
vn 0.000000 1.000000 0.000000
vn 0.000000 1.000000 0.000000
vn 0.000000 1.000000 0.000000
vn 0.000000 1.000000 0.000000
vn 0.000000 0.000000 -1.000000
vn 0.000000 0.000000 -1.000000
vn 0.000000 0.000000 -1.000000
vn 0.000000 0.000000 -1.000000
vn 0.000000 -1.000000 0.000000
vn 0.000000 -1.000000 0.000000
vn 0.000000 -1.000000 0.000000
vn 0.000000 -1.000000 0.000000
vn 0.000000 -1.000000 0.000000
vn 0.000000 -1.000000 0.000000
vn 0.000000 -1.000000 0.000000
vn 0.000000 -1.000000 0.000000
vn 0.000000 1.000000 0.000000
vn 0.000000 1.000000 0.000000
vn 0.000000 1.000000 0.000000
vn 0.000000 1.000000 0.000000
vn 1.000000 0.000000 0.000000
vn 1.000000 0.000000 0.000000
vn 1.000000 0.000000 0.000000
vn 1.000000 0.000000 0.000000
vn 0.000000 0.000000 -1.000000
vn 0.000000 0.000000 -1.000000
vn 0.000000 0.000000 -1.000000
vn 0.000000 0.000000 -1.000000
vn -1.000000 0.000000 0.000000
vn -1.000000 0.000000 0.000000
vn -1.000000 0.000000 0.000000
vn -1.000000 0.000000 0.000000
vn 0.000000 0.000000 1.000000
vn 0.000000 0.000000 1.000000
vn 0.000000 0.000000 1.000000
vn 0.000000 0.000000 1.000000
s 1
g group1 pCube1
usemtl initialShadingGroup
f 9/17/25 33/56/26 34/58/27 11/19/28
s 2
f 11/19/29 34/58/30 35/59/31 21/40/32
s 3
f 13/21/33 37/61/34 38/62/35 15/23/36
s 4
f 22/42/37 40/64/38 33/57/39 9/25/40
s 5
f 10/18/41 23/44/42 24/46/43 12/20/44
s 6
f 21/39/45 22/41/46 9/17/47 11/19/48
f 15/29/49 18/33/50 17/31/51 13/30/52
s 4
f 15/23/53 38/62/54 39/63/55 18/34/56
s 5
f 20/38/57 19/36/58 16/27/59 14/28/60
s 2
f 17/32/61 36/60/62 37/61/63 13/21/64
s 6
f 17/31/51 18/33/50 22/41/46 21/39/45
s 4
f 18/34/56 39/63/55 40/64/38 22/42/37
s 5
f 24/46/43 23/44/42 19/36/58 20/38/57
s 2
f 21/40/32 35/59/31 36/60/62 17/32/61
s 1
f 26/49/65 25/47/66 10/18/67 12/20/68
s 2
f 27/50/69 26/49/70 12/20/71 24/45/72
f 28/51/73 27/50/69 24/45/72 20/37/74
f 29/52/75 28/51/73 20/37/74 14/22/76
s 3
f 30/53/77 29/52/78 14/22/79 16/24/80
s 4
f 31/54/81 30/53/82 16/24/83 19/35/84
f 32/55/85 31/54/81 19/35/84 23/43/86
f 25/48/87 32/55/85 23/43/86 10/26/88
s 1
f 34/58/27 33/56/26 25/47/66 26/49/65
s 2
f 35/59/31 34/58/30 26/49/70 27/50/69
s off
f 42/65/89 41/66/90 43/67/91 44/68/92
s 2
f 37/61/63 36/60/62 28/51/73 29/52/75
s 3
f 38/62/35 37/61/34 29/52/78 30/53/77
s 4
f 39/63/55 38/62/54 30/53/82 31/54/81
f 40/64/38 39/63/55 31/54/81 32/55/85
f 33/57/39 40/64/38 32/55/85 25/48/87
s off
f 36/60/93 35/59/94 41/66/95 42/65/96
f 35/59/97 27/50/98 43/67/99 41/66/100
f 27/50/101 28/51/102 44/68/103 43/67/104
f 28/51/105 36/60/106 42/65/107 44/68/108
